<svg version="1.1" id="Layer_1" xmlns="http://www.w3.org/2000/svg" xmlns:xlink="http://www.w3.org/1999/xlink" x="0px" y="0px"
	 width="100%" viewBox="0 0 755 654" enable-background="new 0 0 755 654" xml:space="preserve">
<path fill="#070506" opacity="1.000000" stroke="none" 
	d="
M452.000000,655.000000 
	C302.833344,655.000000 154.166656,654.983582 5.500070,655.094055 
	C1.750612,655.096863 0.904659,654.249207 0.906489,650.499939 
	C1.011408,435.500000 1.011408,220.500000 0.906489,5.500046 
	C0.904659,1.750778 1.750825,0.905089 5.500039,0.906646 
	C254.166672,1.009860 502.833344,1.009860 751.499939,0.906646 
	C755.249146,0.905090 756.095337,1.750778 756.093506,5.500046 
	C755.988586,220.500000 755.988586,435.500000 756.093506,650.499939 
	C756.095337,654.249207 755.249695,655.099304 751.499878,655.094849 
	C651.833313,654.975586 552.166687,655.000000 452.000000,655.000000 
z"/>
<path fill="#F9F8F8" opacity="1.000000" stroke="none" 
	d="
M405.130127,388.000000 
	C405.176910,411.828369 405.140503,435.157440 405.338654,458.484528 
	C405.378143,463.131592 404.162384,466.708801 400.685852,469.948242 
	C394.172028,476.017792 388.015717,482.471100 381.018890,489.455322 
	C381.018890,486.937500 381.018860,485.345337 381.018860,483.753143 
	C381.018494,419.266693 381.068817,354.780151 380.905914,290.294098 
	C380.894836,285.908966 382.016510,285.189026 386.272766,284.765747 
	C393.825531,284.014648 397.513702,287.168304 400.834259,293.570068 
	C413.267456,317.540344 426.257568,341.221771 439.295898,365.489807 
	C440.656952,363.430389 440.160950,361.611847 440.162109,359.957520 
	C440.189545,320.965759 440.179291,281.973969 440.162476,242.982162 
	C440.155701,227.297852 448.888550,216.710480 464.778656,213.469040 
	C464.778656,215.324066 464.780640,217.124969 464.778412,218.925873 
	C464.692993,287.411407 464.619720,355.896942 464.477020,424.382355 
	C464.471100,427.222015 465.808990,431.289551 462.484314,432.479492 
	C458.169312,434.023865 453.316895,434.221710 449.184692,430.994263 
	C446.735657,429.081543 445.482605,426.358063 444.065521,423.725891 
	C432.435120,402.122528 420.794678,380.524536 409.143066,358.932556 
	C408.130646,357.056366 407.016327,355.235168 405.129364,353.468445 
	C405.129364,364.812286 405.129364,376.156158 405.130127,388.000000 
z"/>
<path fill="#F8F7F7" opacity="1.000000" stroke="none" 
	d="
M202.263138,262.967468 
	C204.870132,265.117126 204.986679,267.717194 204.983688,270.449554 
	C204.959457,292.604340 205.172852,314.761871 204.859528,336.912109 
	C204.788269,341.949036 206.292450,342.958832 210.935608,342.725647 
	C218.911224,342.325134 226.925537,342.467804 234.915283,342.686768 
	C238.147232,342.775299 239.121658,341.916199 239.084030,338.563995 
	C238.898880,322.074860 239.084885,305.581696 238.926376,289.092010 
	C238.895660,285.896240 239.635590,284.771637 242.990463,284.952911 
	C248.471542,285.249023 253.986572,285.189331 259.474762,284.968658 
	C262.331116,284.853790 263.086365,285.775177 263.067108,288.574097 
	C262.956055,304.731049 263.044189,320.889282 263.041351,337.047089 
	C263.036041,367.031067 262.908752,397.015717 263.105896,426.998291 
	C263.138092,431.892975 261.643738,433.474548 256.864502,433.082489 
	C252.231506,432.702393 247.530121,432.789948 242.883148,433.072632 
	C239.699478,433.266327 239.041153,432.159576 239.064636,429.145172 
	C239.207336,410.822693 239.003769,392.496918 239.238663,374.176331 
	C239.290344,370.145386 238.102219,369.167847 234.253601,369.296783 
	C225.767654,369.581024 217.261871,369.529694 208.772095,369.309784 
	C205.641586,369.228668 204.879425,370.184540 204.905380,373.229767 
	C205.055847,390.885834 204.875031,408.545013 205.075516,426.200104 
	C205.130386,431.030609 203.814774,434.324219 199.308838,436.674042 
	C192.133575,440.415863 186.597321,446.187988 181.355804,453.423645 
	C181.355804,382.355774 181.355804,312.132355 181.355804,240.286087 
	C187.624008,249.629349 194.386520,256.578827 202.263138,262.967468 
z"/>
<path fill="#FAF9F8" opacity="1.000000" stroke="none" 
	d="
M318.001404,285.031433 
	C326.160767,285.031525 333.821686,285.104279 341.479767,284.988770 
	C343.871399,284.952698 344.730499,285.542999 345.189758,288.158417 
	C349.657715,313.602173 354.364136,339.003967 358.982483,364.421387 
	C362.823547,385.561096 366.530273,406.726196 370.557159,427.830322 
	C371.333862,431.900970 370.838562,433.436676 366.349396,433.086609 
	C361.549530,432.712250 356.693207,432.869354 351.870331,433.041290 
	C347.782440,433.187012 345.729431,431.232727 345.016388,427.414825 
	C342.494537,413.911743 339.845581,400.430939 337.502380,386.897095 
	C336.978821,383.873169 336.027679,382.784912 332.854828,382.889496 
	C325.369659,383.136322 317.869354,383.052673 310.378418,382.919495 
	C308.010712,382.877411 307.058136,383.398865 306.616821,385.999207 
	C304.233917,400.039551 301.467102,414.014587 299.063934,428.051758 
	C298.439423,431.699615 296.927094,433.216248 293.171600,433.060699 
	C287.685913,432.833527 282.169128,432.758881 276.694031,433.089874 
	C273.181091,433.302277 272.505280,431.999725 273.065887,428.945648 
	C275.905457,413.477020 278.594574,397.980347 281.502777,382.524811 
	C287.287262,351.783539 293.246918,321.075073 298.944061,290.317841 
	C299.649506,286.509308 300.456970,284.333679 305.027496,284.920715 
	C309.122772,285.446686 313.338989,285.031433 318.001404,285.031433 
z"/>
<path fill="#FAF9F8" opacity="1.000000" stroke="none" 
	d="
M554.970276,342.996735 
	C565.801392,342.996735 565.800171,342.996735 565.800049,353.273804 
	C565.799744,378.259918 565.698059,403.246918 565.904602,428.231323 
	C565.938110,432.286835 564.716370,433.102020 560.911011,433.091492 
	C538.091370,433.028259 515.270996,433.233093 492.450897,433.348206 
	C491.618073,433.352417 490.784027,433.388763 489.952576,433.357269 
	C482.208038,433.063995 481.858368,432.755157 481.643951,425.057770 
	C481.537323,421.229462 481.830811,417.380341 481.551819,413.569305 
	C481.300507,410.136383 482.349152,409.043121 485.923462,409.081848 
	C503.245117,409.269409 520.571289,409.052582 537.892578,409.259430 
	C541.493408,409.302368 542.272156,408.254730 542.199829,404.829407 
	C541.971191,394.006927 542.020935,383.175140 542.182861,372.350220 
	C542.225464,369.504791 541.378906,368.743317 538.574158,368.771240 
	C524.749878,368.908813 510.923431,368.850159 497.097809,368.828430 
	C485.594360,368.810333 481.759186,365.093170 481.714447,353.642944 
	C481.642242,335.153503 481.631714,316.663300 481.721405,298.174011 
	C481.772430,287.650726 484.565460,285.035828 495.209961,285.032745 
	C516.864624,285.026428 538.521606,285.199219 560.171997,284.896332 
	C564.821472,284.831268 565.739441,286.279297 565.452148,290.448151 
	C565.098022,295.587616 565.156982,300.781433 565.440002,305.929626 
	C565.622620,309.251434 564.541199,310.075256 561.294189,310.044830 
	C544.138550,309.884277 526.978882,310.100769 509.824860,309.868713 
	C505.986755,309.816803 505.067352,310.901764 505.209412,314.585388 
	C505.504456,322.236420 505.533539,329.916870 505.204742,337.565155 
	C505.025574,341.733124 505.820679,343.253113 510.503052,343.133850 
	C525.152039,342.760651 539.816589,342.996735 554.970276,342.996735 
z"/>
<path fill="#F9F9F8" opacity="1.000000" stroke="none" 
	d="
M520.342163,161.005310 
	C527.343140,129.241653 523.796692,98.775093 511.489014,68.681381 
	C540.218384,81.059196 561.884644,119.937187 558.635315,156.902054 
	C554.690735,201.775558 530.919861,226.397659 480.777557,244.886292 
	C480.777557,242.483536 480.777557,240.188110 480.828979,237.449249 
	C481.282867,234.884949 482.862976,233.566925 484.318573,232.248047 
	C505.340912,213.200150 516.198242,189.012924 520.342163,161.005310 
z"/>
<path fill="#F9F9F8" opacity="1.000000" stroke="none" 
	d="
M227.445160,158.538025 
	C227.447281,159.283096 227.263977,159.744110 227.129791,160.577179 
	C228.469910,162.598846 228.751312,164.612427 229.026581,166.568146 
	C232.066406,188.165970 240.787506,207.270126 254.236435,224.319550 
	C255.573151,226.014130 256.849091,227.756927 258.253326,229.857788 
	C259.873169,232.655136 262.054993,234.599152 263.636230,237.409653 
	C264.505707,239.228317 265.399872,240.672760 265.174316,242.750153 
	C232.673004,231.290787 204.983643,213.789413 194.015762,178.943817 
	C181.477478,139.108963 196.257126,92.059067 233.677414,69.887405 
	C234.228546,69.560867 234.783340,69.240517 236.069687,69.090744 
	C225.576675,97.426147 221.814163,126.375549 226.717743,156.581696 
	C226.927109,157.414520 227.069290,157.842270 227.445160,158.538025 
z"/>
<path fill="#F9F8F8" opacity="1.000000" stroke="none" 
	d="
M569.254395,197.976196 
	C576.062439,176.012070 576.033142,154.158539 572.413879,132.057068 
	C571.131653,124.226479 570.826050,116.235962 570.061890,108.184425 
	C621.080750,133.865295 616.582947,209.178406 581.021729,240.183304 
	C581.021729,235.678406 581.127197,231.811371 580.995361,227.952423 
	C580.825562,222.978439 578.712097,221.818741 574.224670,224.062180 
	C567.153381,227.597382 564.336365,231.950455 565.160767,239.545410 
	C565.838501,245.789062 563.636536,250.510437 559.190247,254.572403 
	C547.885742,264.899780 534.537842,270.623627 519.355652,271.786896 
	C509.903259,272.511200 500.400818,272.581909 490.921051,272.950531 
	C488.327759,273.051392 485.705688,272.875671 484.517639,270.163788 
	C483.280090,267.338898 485.242645,265.326050 487.130188,263.726288 
	C494.471832,257.503693 503.587433,254.734085 512.631592,251.070251 
	C525.409790,257.054382 536.169128,254.187531 546.024902,244.722839 
	C552.572693,239.960770 556.831665,233.660995 561.427124,227.166626 
	C566.158020,219.638443 568.414062,211.764877 568.513916,203.264130 
	C568.533508,201.599777 568.549683,199.942215 569.254395,197.976196 
z"/>
<path fill="#FAF9F8" opacity="1.000000" stroke="none" 
	d="
M546.048828,577.910645 
	C553.367371,552.143738 550.530640,527.607727 539.588257,503.916962 
	C529.352661,481.756317 513.061035,464.755188 493.175018,450.978424 
	C492.630188,450.600952 492.102997,450.197998 491.191132,449.532013 
	C493.595337,448.434174 495.916016,448.866974 498.094788,448.822845 
	C508.895782,448.604004 519.741516,448.217987 530.384705,450.512726 
	C545.438354,453.758362 557.177368,462.121124 565.103271,475.198608 
	C578.710327,497.649719 583.977173,521.688782 577.065552,547.602356 
	C572.616394,564.283508 561.003479,575.027161 546.832336,583.578369 
	C546.121033,584.007629 545.362671,584.317139 544.254883,583.700439 
	C544.826111,581.940430 545.414917,580.126587 546.048828,577.910645 
z"/>
<path fill="#F9F9F8" opacity="1.000000" stroke="none" 
	d="
M257.411011,448.847534 
	C251.430618,453.916016 245.423035,458.621613 239.667038,463.617096 
	C219.229218,481.354492 205.449631,503.155365 200.464783,529.958984 
	C197.269165,547.141968 197.507401,564.280762 203.454666,581.006531 
	C203.722961,581.761108 203.926727,582.538574 204.197220,583.425598 
	C194.145767,580.755859 181.173752,568.815369 175.165115,556.498413 
	C167.137482,540.042664 167.088333,522.946289 171.814041,505.318604 
	C182.749542,492.818268 193.173721,480.297089 204.858307,469.063446 
	C215.514633,458.818359 228.513062,452.089142 243.646973,449.296204 
	C248.064224,448.950348 252.124161,448.658569 256.654480,448.332153 
	C257.124878,448.297546 257.499207,448.617615 257.411011,448.847534 
z"/>
<path fill="#F7F6F6" opacity="1.000000" stroke="none" 
	d="
M463.812866,183.205994 
	C465.722870,186.089722 467.722931,188.517365 468.651855,191.983887 
	C461.354431,191.983887 454.405090,191.930969 447.457184,192.007706 
	C444.300476,192.042557 443.314819,189.614456 442.073456,187.542542 
	C433.577881,173.362732 422.271149,162.076691 407.271973,155.001953 
	C373.503906,139.074463 334.429108,148.701202 313.109650,179.377441 
	C306.292419,189.186676 299.279144,194.046387 287.601471,192.065384 
	C285.192780,191.656769 282.655518,192.006119 279.622406,192.006119 
	C282.946869,183.460190 288.070892,176.558273 293.886627,170.279037 
	C314.348816,148.186050 339.347595,134.155167 369.727051,133.532242 
	C409.619202,132.714264 441.206146,149.552032 463.812866,183.205994 
z"/>
<path fill="#F9F9F8" opacity="1.000000" stroke="none" 
	d="
M186.250549,230.263489 
	C181.390411,226.952133 176.835739,223.323242 172.230423,219.759766 
	C171.100327,218.885315 169.885712,217.376343 168.338455,218.302139 
	C166.994537,219.106247 166.959549,220.826569 166.968948,222.379471 
	C167.002502,227.929108 166.982071,233.479065 166.982071,239.687271 
	C128.569748,203.013580 131.110870,133.769547 178.070724,107.477180 
	C177.999969,117.781052 176.754059,127.776825 175.432220,137.742493 
	C172.669418,158.571640 172.930481,179.134750 180.081970,199.594330 
	C180.970047,207.669052 182.864563,215.096481 185.490799,222.368713 
	C186.364334,224.787598 187.660690,227.237778 186.250549,230.263489 
z"/>
<path fill="#F5F4F5" opacity="1.000000" stroke="none" 
	d="
M302.015045,480.050964 
	C300.500671,480.731750 299.343933,481.302856 297.757172,482.086273 
	C297.563354,478.265991 297.453308,474.844055 297.201538,471.432587 
	C296.841003,466.546509 293.472931,465.686584 289.456909,465.901947 
	C285.567108,466.110596 284.087830,468.414001 283.925415,472.122101 
	C283.768860,475.696930 285.513184,480.212830 283.095673,482.596069 
	C280.789032,484.870026 276.402100,484.990997 272.969574,486.174133 
	C264.180511,489.203613 255.511612,492.539001 247.919495,498.059998 
	C231.970673,509.657990 226.370010,526.055115 226.611618,544.980408 
	C226.912689,568.565430 236.759552,588.206787 252.065582,605.521301 
	C252.698822,606.237549 253.679703,606.739441 253.666504,608.301453 
	C248.459625,607.540283 244.179733,604.297729 239.308365,603.146301 
	C226.700882,600.166443 222.023193,591.592896 218.675186,579.716431 
	C206.195557,535.447083 224.545197,497.745850 256.454865,472.725647 
	C267.465881,464.092010 279.371918,456.962128 293.203583,453.585175 
	C296.523346,452.774658 299.838104,452.811829 303.114075,453.147919 
	C308.238953,453.673676 312.777771,457.687958 313.753326,462.377594 
	C314.952271,468.141357 313.012360,472.902863 308.374664,476.435699 
	C306.545349,477.829193 304.383240,478.785767 302.015045,480.050964 
z"/>
<path fill="#F7F6F6" opacity="1.000000" stroke="none" 
	d="
M268.574768,522.009277 
	C266.679413,554.089539 279.960876,578.691223 303.450653,598.681885 
	C309.216278,603.588684 314.670319,608.861633 319.993042,614.465149 
	C312.881653,614.668884 306.267700,612.961426 299.801270,610.907227 
	C271.440430,601.897644 251.708542,583.856445 243.805679,554.732483 
	C240.142929,541.234253 241.071060,527.639160 250.374191,516.015259 
	C254.139923,511.310120 259.444946,508.994995 265.361298,507.943909 
	C267.681000,507.531799 268.737213,507.882690 268.612732,510.525757 
	C268.440582,514.180054 268.574982,517.848816 268.574768,522.009277 
z"/>
<path fill="#F8F7F7" opacity="1.000000" stroke="none" 
	d="
M621.606323,425.385254 
	C631.254883,430.777100 639.712402,437.194641 647.563293,444.400177 
	C655.685120,451.854309 657.561218,461.072266 652.658997,471.006531 
	C649.001770,478.417755 644.761292,485.541107 640.561768,493.191254 
	C638.210083,490.274963 638.061646,487.041046 636.852356,484.268860 
	C629.805847,468.116425 618.330933,455.672058 604.394714,445.297302 
	C598.269775,440.737579 592.024475,436.335754 585.756042,431.974091 
	C582.486206,429.698914 580.850098,426.868774 581.033997,422.765717 
	C581.264343,417.623474 581.089355,412.463074 581.089355,406.772949 
	C595.309204,411.686646 608.451050,418.111176 621.606323,425.385254 
z"/>
<path fill="#F9F8F8" opacity="1.000000" stroke="none" 
	d="
M593.537170,273.145569 
	C599.851501,269.076996 605.953064,265.435333 612.023315,261.742218 
	C629.585571,251.057281 641.962646,235.805054 650.884766,217.523560 
	C652.331299,214.559601 653.742920,211.578598 655.190125,208.564896 
	C665.747375,221.251236 667.381714,236.776260 659.621155,250.947769 
	C646.872131,274.228729 626.676697,287.484100 601.482666,293.956726 
	C598.605225,294.695984 595.707336,295.355499 592.411499,296.057190 
	C591.055847,295.245239 590.582092,294.099976 590.797180,292.974670 
	C592.025085,286.546753 591.814392,279.936951 593.537170,273.145569 
z"/>
<path fill="#F9F9F8" opacity="1.000000" stroke="none" 
	d="
M505.379974,538.862549 
	C507.873840,554.043945 501.617737,566.633911 493.968201,578.282288 
	C479.875702,599.741516 458.718567,610.147766 433.899170,613.989136 
	C432.751495,614.166809 431.601013,614.327576 430.449951,614.481995 
	C429.309052,614.635193 428.165741,614.770569 425.669464,615.083374 
	C431.809784,609.799927 437.052155,605.349182 442.228699,600.823181 
	C455.712341,589.033997 467.977814,576.293945 474.513184,559.118652 
	C478.939941,547.484924 480.547272,535.414490 480.190460,522.570435 
	C481.898590,520.373169 483.628723,521.410461 485.183105,522.190125 
	C493.066528,526.144104 499.912048,531.403564 505.379974,538.862549 
z"/>
<path fill="#F9F8F8" opacity="1.000000" stroke="none" 
	d="
M152.281067,294.462250 
	C126.220406,289.158264 105.268929,276.318176 90.587074,254.040161 
	C87.081978,248.721603 84.777313,242.913361 83.265747,236.743652 
	C82.674278,234.329468 83.425865,232.168610 83.972137,229.913086 
	C85.774300,222.472046 88.687691,215.507141 92.525909,209.028885 
	C93.550392,208.917984 93.798355,209.460068 94.080482,210.109772 
	C105.942383,237.425812 125.494026,257.479065 152.021545,271.399261 
	C154.735519,279.089325 154.284027,286.583405 152.281067,294.462250 
z"/>
<path fill="#F8F7F7" opacity="1.000000" stroke="none" 
	d="
M153.238861,329.357788 
	C138.413788,328.088104 123.928459,326.701782 109.897293,322.226044 
	C97.001762,318.112549 86.353447,310.867218 77.376297,300.942780 
	C73.498909,296.656219 71.763657,291.396423 72.279289,285.792908 
	C72.893684,279.115997 74.293129,272.511383 75.495300,264.980652 
	C78.988403,269.255432 81.723358,272.922668 84.784805,276.293365 
	C97.988533,290.831024 115.193893,298.418732 133.509460,303.986603 
	C139.366333,305.767090 145.284775,307.345062 151.552368,309.109314 
	C155.520035,315.560608 155.314880,322.233521 153.238861,329.357788 
z"/>
<path fill="#F8F7F7" opacity="1.000000" stroke="none" 
	d="
M152.238068,365.469574 
	C129.661270,369.771118 107.694771,368.739166 86.067345,361.974304 
	C80.936157,360.369293 76.326294,357.891296 72.587044,353.911713 
	C69.728325,350.869263 68.200478,347.330841 68.186264,343.161804 
	C68.166428,337.345795 68.181267,331.529633 68.181267,325.775055 
	C69.404350,324.955780 70.193077,325.815613 70.894470,326.405853 
	C85.796173,338.945496 103.690460,342.122589 122.358871,343.019104 
	C132.312286,343.497131 142.255173,344.194092 152.610382,344.880096 
	C154.328461,346.413300 154.758423,348.207825 154.559555,350.032654 
	C154.009872,355.076416 154.301056,360.237793 152.238068,365.469574 
z"/>
<path fill="#F1F0F1" opacity="1.000000" stroke="none" 
	d="
M389.766235,165.087845 
	C399.695740,170.859055 406.643768,178.664871 408.912323,189.761246 
	C412.551758,207.563156 401.153137,225.574448 383.526855,230.414337 
	C368.355499,234.580154 352.248993,228.402206 344.022491,215.261734 
	C335.883301,202.260651 337.049042,185.656342 346.920013,173.991928 
	C357.321869,161.700104 374.326660,158.090973 389.766235,165.087845 
z"/>
<path fill="#F9F8F8" opacity="1.000000" stroke="none" 
	d="
M131.191788,455.614380 
	C126.249489,461.523743 121.468864,467.055725 117.655823,473.337677 
	C113.971794,479.406982 111.244514,485.888885 109.246841,493.551178 
	C103.178963,486.507874 99.515793,478.994354 96.110458,471.340820 
	C95.172249,469.232239 94.557495,466.980286 93.783699,464.797913 
	C91.490631,458.330719 92.942406,453.043701 97.920654,448.140686 
	C111.471260,434.794861 127.158051,424.726440 144.650299,416.607483 
	C146.383301,417.981293 145.682617,419.619171 145.039337,421.103027 
	C140.156952,432.365204 135.944153,443.892181 131.191788,455.614380 
z"/>
<path fill="#F8F7F7" opacity="1.000000" stroke="none" 
	d="
M627.760498,344.293335 
	C638.414307,342.183289 648.930542,341.035461 658.938965,337.232819 
	C666.433655,334.385254 672.761414,329.718933 679.741516,324.630554 
	C679.741516,332.540466 679.871460,339.607971 679.693115,346.667664 
	C679.585083,350.945343 677.228699,353.948334 673.658325,356.355988 
	C664.621887,362.449493 654.431580,364.938995 643.886963,366.485931 
	C629.504150,368.595917 615.131470,368.759613 600.396729,366.114929 
	C599.756897,363.039124 602.133484,362.470551 604.045105,361.835968 
	C613.760742,358.610748 621.697693,353.044250 627.760498,344.293335 
z"/>
<path fill="#F7F6F6" opacity="1.000000" stroke="none" 
	d="
M637.832764,296.402252 
	C647.855347,289.603424 658.104004,283.647461 665.431335,274.095612 
	C667.636841,271.220581 669.709229,268.243439 671.860352,265.288666 
	C680.736084,278.173828 677.248779,296.975861 663.902954,308.832428 
	C652.033936,319.376984 637.563782,323.565491 622.346924,325.937805 
	C615.534607,326.999878 608.708313,327.972321 601.461548,328.967041 
	C600.563477,326.486664 602.605042,325.907684 604.097351,325.062561 
	C606.833618,323.512878 609.673218,322.146271 612.468567,320.702118 
	C623.216858,315.149200 631.490051,307.048584 637.832764,296.402252 
z"/>
<path fill="#F7F6F6" opacity="1.000000" stroke="none" 
	d="
M408.413330,119.510811 
	C400.566284,117.854675 393.108734,116.322876 385.623260,114.942879 
	C383.146484,114.486267 382.030731,113.582573 382.048126,110.760002 
	C382.177429,89.798241 382.118256,68.835320 382.118256,46.867836 
	C386.873993,51.818535 390.093933,56.905266 393.466095,61.818901 
	C402.843018,75.482147 410.344177,89.912323 411.500916,106.922203 
	C411.751984,110.614166 411.504211,114.220047 411.263153,117.867622 
	C411.147583,119.616402 410.537537,120.329033 408.413330,119.510811 
z"/>
<path fill="#F9F9F8" opacity="1.000000" stroke="none" 
	d="
M348.503784,71.527390 
	C353.732819,63.257877 359.332977,55.716148 365.979523,47.428963 
	C365.979523,52.887787 365.979736,57.279408 365.979492,61.671024 
	C365.978607,77.642082 365.842346,93.615082 366.071289,109.582848 
	C366.128845,113.595139 364.743988,115.177818 360.927124,115.703911 
	C354.537628,116.584602 348.132751,117.553581 341.861603,119.026985 
	C337.190735,120.124405 336.241333,118.059631 336.095825,114.146904 
	C335.790222,105.927528 337.084900,97.983078 339.654846,90.201668 
	C341.794250,83.724075 344.918396,77.718849 348.503784,71.527390 
z"/>
<path fill="#F1F0F1" opacity="1.000000" stroke="none" 
	d="
M353.672150,535.383545 
	C341.942017,527.538391 336.289062,517.016785 336.992706,503.122131 
	C337.461029,493.873993 337.954590,493.012054 347.832458,489.029480 
	C347.482086,493.901550 345.757904,498.373138 345.794189,503.143860 
	C345.907013,517.973389 357.426300,529.648315 373.111511,530.469543 
	C387.369995,531.216064 400.449402,520.331116 402.196075,506.500000 
	C402.662872,502.803772 402.735748,499.184235 401.902740,495.605255 
	C401.127960,492.276642 402.097992,489.642456 405.320862,488.994385 
	C408.388733,488.377411 408.645294,491.724762 409.294464,493.648499 
	C416.792908,515.869507 400.752563,541.908691 373.801666,541.267944 
	C366.660461,541.098145 360.046906,539.345947 353.672150,535.383545 
z"/>
<path fill="#F5F4F5" opacity="1.000000" stroke="none" 
	d="
M617.140381,218.096375 
	C623.982117,198.197861 624.813232,178.091507 622.944336,157.085052 
	C635.168030,166.642242 641.922668,177.829117 639.911926,193.336807 
	C636.749084,217.730743 624.985229,236.625977 604.388855,250.015686 
	C602.540894,251.217041 600.773132,252.833496 597.764038,252.804840 
	C606.942017,242.566010 613.176025,231.174652 617.140381,218.096375 
z"/>
<path fill="#F4F3F4" opacity="1.000000" stroke="none" 
	d="
M125.429901,161.138733 
	C123.768272,185.200653 125.862083,208.259369 135.983521,230.141998 
	C140.139297,239.126816 146.005447,246.870087 152.223770,254.573364 
	C145.750427,251.608841 140.113800,247.450974 134.906723,242.826248 
	C119.189880,228.867157 110.798653,211.030487 108.295952,190.368958 
	C107.562614,184.314758 109.337929,178.504471 112.150192,173.111282 
	C115.332062,167.009293 119.928139,162.062180 125.814751,156.783447 
	C125.656227,158.681244 125.570290,159.710098 125.429901,161.138733 
z"/>
<path fill="#F1F0F1" opacity="1.000000" stroke="none" 
	d="
M604.191406,496.812378 
	C607.930725,509.313690 608.647827,521.633301 606.854736,534.118652 
	C606.322815,537.822205 605.063538,541.084900 601.955688,543.568542 
	C597.702454,546.967651 593.998291,551.071838 588.596008,553.928772 
	C588.583923,550.169922 590.306458,547.358276 591.053894,544.335144 
	C595.345459,526.976074 594.019775,509.787659 586.810120,493.737457 
	C581.926514,482.865601 581.829224,472.056732 582.132874,459.748199 
	C592.174683,471.030151 600.047668,482.541290 604.191406,496.812378 
z"/>
<path fill="#ADADAD" opacity="1.000000" stroke="none" 
	d="
M186.135971,230.831314 
	C185.672760,224.992950 182.808792,220.172394 181.430084,214.918564 
	C180.174164,210.132568 178.977020,205.369019 179.864883,200.162933 
	C194.917465,226.279114 218.442154,242.043854 245.015778,254.185883 
	C250.460617,256.673737 255.480820,259.904968 260.247498,263.519958 
	C262.762207,265.427094 264.054016,268.122375 262.589386,270.914551 
	C261.214630,273.535431 258.362122,272.190643 256.270050,271.619476 
	C236.582626,266.244446 219.737305,255.603073 203.747238,243.298355 
	C198.134323,238.979080 192.939270,233.994049 186.135971,230.831314 
z"/>
<path fill="#F4F3F4" opacity="1.000000" stroke="none" 
	d="
M247.804840,192.036194 
	C258.492249,199.778839 269.839508,206.181549 281.878906,211.370651 
	C283.741974,212.173645 284.078918,213.423492 284.009338,215.248260 
	C283.882538,218.573654 283.956146,221.907639 283.984192,225.237717 
	C284.020416,229.540207 286.660278,231.584290 290.517426,231.947266 
	C294.488220,232.320938 296.783447,230.078873 297.189148,226.168365 
	C297.546783,222.721085 297.641693,219.246536 297.853058,215.777267 
	C306.166016,216.905930 313.121765,223.108337 314.027496,230.107269 
	C315.323914,240.125092 306.554291,247.407028 296.919891,244.351608 
	C291.504974,242.634338 286.874023,239.310852 281.373230,236.992859 
	C279.193787,236.755341 278.080933,235.475601 277.111420,234.167053 
	C273.461029,229.240280 268.814758,225.272491 264.296875,220.679688 
	C258.400818,212.876678 253.750992,204.668350 248.401505,196.924911 
	C247.454971,195.554794 246.717422,194.040527 247.804840,192.036194 
z"/>
<path fill="#F5F4F5" opacity="1.000000" stroke="none" 
	d="
M531.502686,535.856873 
	C536.022278,550.782898 533.555237,565.212891 529.576477,579.304077 
	C523.374146,601.270630 527.004211,595.889648 507.505280,603.958008 
	C503.311920,605.693298 499.224182,608.104309 493.722046,608.022339 
	C503.602295,597.957886 511.092041,586.935669 515.936096,574.270874 
	C521.673706,559.269836 523.534973,543.803467 520.887939,527.439453 
	C526.106201,527.700378 528.175598,532.284851 531.502686,535.856873 
z"/>
<path fill="#8D8B8B" opacity="1.000000" stroke="none" 
	d="
M520.133179,160.811722 
	C521.336060,169.795044 518.523804,178.322296 515.713074,186.770813 
	C509.095062,206.662994 497.387421,223.151978 481.193848,236.875580 
	C479.277069,227.945450 480.334320,218.801498 480.030701,209.700272 
	C479.974701,208.021423 481.091980,206.962769 482.257141,206.006912 
	C484.055023,204.531982 485.794525,202.949417 487.743622,201.701096 
	C503.156006,191.829895 512.648193,177.320724 520.133179,160.811722 
z"/>
<path fill="#F5F4F5" opacity="1.000000" stroke="none" 
	d="
M421.851990,573.473145 
	C428.082642,563.500671 431.559845,552.946533 433.360718,541.202209 
	C442.346191,544.872864 451.207733,548.542908 460.114288,552.100159 
	C462.709412,553.136597 461.369904,554.818298 460.824371,556.088928 
	C458.194763,562.213684 453.637573,566.760986 448.250275,570.473022 
	C437.759216,577.701721 427.189667,584.816528 416.337036,592.133484 
	C414.434052,590.761841 414.749390,588.922180 415.479858,587.246948 
	C417.450226,582.728149 418.792267,577.919922 421.851990,573.473145 
z"/>
<path fill="#9D9C9C" opacity="1.000000" stroke="none" 
	d="
M243.731964,448.937012 
	C244.024277,450.625000 242.966309,450.703308 241.996429,450.940216 
	C224.332047,455.254608 209.764313,464.321777 197.853439,478.212646 
	C189.873001,487.519745 181.928299,496.941101 172.450256,505.145142 
	C173.038559,494.472565 177.526810,485.135132 182.603851,476.052246 
	C192.736847,457.924164 208.315567,449.101654 229.036926,448.920593 
	C233.838882,448.878693 238.632690,447.958527 243.731964,448.937012 
z"/>
<path fill="#9D9C9C" opacity="1.000000" stroke="none" 
	d="
M637.734375,296.115662 
	C634.455933,306.805878 626.513062,313.667664 617.380005,319.341095 
	C612.170166,322.577454 606.671448,325.348755 601.168701,328.639038 
	C595.262695,330.472351 589.345154,330.766510 583.424683,331.069214 
	C581.927429,331.145752 581.284119,330.502930 581.285828,329.069061 
	C581.286377,328.571411 581.261169,328.073578 581.268799,327.576141 
	C581.342529,322.772827 579.877014,317.123474 581.919312,313.397522 
	C584.086121,309.444366 590.501648,310.473816 595.046387,309.469482 
	C609.569153,306.260071 623.702087,301.938721 637.734375,296.115662 
z"/>
<path fill="#F4F3F4" opacity="1.000000" stroke="none" 
	d="
M165.877563,481.827759 
	C162.624268,492.247131 158.303101,502.216949 156.709381,513.135925 
	C154.904510,525.501526 155.549316,537.562561 159.148712,549.485718 
	C159.617020,551.036987 160.396896,552.490295 160.088058,554.226990 
	C143.541534,544.945190 138.114090,533.092712 141.335281,513.543335 
	C142.167709,508.491364 142.880753,503.420624 144.701294,498.244873 
	C149.639648,492.369019 155.443954,488.027283 161.126083,483.552216 
	C162.418945,482.534027 163.762650,481.545349 165.877563,481.827759 
z"/>
<path fill="#F5F4F5" opacity="1.000000" stroke="none" 
	d="
M442.154541,115.076447 
	C440.039124,119.067551 438.156128,122.754463 436.105560,126.345665 
	C435.293091,127.768555 435.229706,130.480927 432.958069,130.012604 
	C430.794952,129.566650 428.467834,128.473785 427.283356,126.292473 
	C426.504700,124.858528 425.968964,123.252907 426.253326,121.507072 
	C428.737976,106.253891 426.212280,91.494865 421.797516,76.931328 
	C421.421112,75.689713 420.569153,74.538193 421.379150,73.118172 
	C423.621887,72.783409 425.056000,74.367287 426.592865,75.491554 
	C432.889954,80.098083 439.014954,84.945923 445.404053,89.418152 
	C448.684723,91.714546 449.392029,94.159973 447.997681,97.849998 
	C445.900330,103.400612 444.192993,109.098595 442.154541,115.076447 
z"/>
<path fill="#F4F3F4" opacity="1.000000" stroke="none" 
	d="
M320.760529,105.108391 
	C320.236755,111.085846 320.598114,116.527260 321.586273,121.949623 
	C322.216248,125.406517 319.335327,129.488129 316.031036,130.214798 
	C314.589355,130.531845 314.484619,129.314697 314.007172,128.664108 
	C306.629547,118.610901 302.614532,107.136528 299.922943,95.107483 
	C299.435944,92.931068 300.002380,91.214264 301.825928,89.886734 
	C309.981079,83.949860 318.124237,77.996513 327.330353,71.276367 
	C325.062225,83.213753 320.889648,93.557465 320.760529,105.108391 
z"/>
<path fill="#A9A9A9" opacity="1.000000" stroke="none" 
	d="
M507.246460,502.900085 
	C495.736237,493.252808 482.752136,486.907928 468.148285,483.760620 
	C462.472870,482.537537 465.900360,477.887238 465.030457,474.424500 
	C469.295074,471.019775 470.981903,465.718414 475.723755,462.892517 
	C482.930573,464.513824 487.980713,469.148987 493.221741,473.405609 
	C500.714447,479.490997 507.481995,486.295532 513.123474,494.613220 
	C510.081879,496.541931 508.248779,499.186676 507.246460,502.900085 
z"/>
<path fill="#ADADAD" opacity="1.000000" stroke="none" 
	d="
M627.561523,343.928589 
	C624.739258,354.113953 615.987183,357.957214 607.463013,362.022888 
	C605.096313,363.151672 602.289246,363.334961 600.174194,365.656189 
	C594.826782,366.576630 589.836182,364.764038 584.690247,364.676666 
	C582.228638,364.634918 580.659119,363.459229 581.102173,360.590027 
	C581.277954,359.451965 581.130432,358.264038 581.130432,357.098816 
	C581.130249,344.835693 581.125366,344.682220 593.651123,344.280273 
	C604.795166,343.922699 615.951843,343.955994 627.561523,343.928589 
z"/>
<path fill="#ADADAD" opacity="1.000000" stroke="none" 
	d="
M131.293900,455.888458 
	C132.578262,445.476837 137.581146,436.209320 141.289841,426.488434 
	C142.468704,423.398499 143.703766,420.330048 144.951660,416.849701 
	C151.834885,413.287537 158.679596,410.127472 166.013382,406.741577 
	C166.013382,413.930756 166.080200,420.505798 165.982605,427.078400 
	C165.939713,429.967377 163.421875,431.198151 161.514847,432.688385 
	C151.585144,440.447876 141.598709,448.134766 131.293900,455.888458 
z"/>
<path fill="#3A393A" opacity="1.000000" stroke="none" 
	d="
M248.030090,191.809448 
	C246.073044,193.642212 248.386154,194.672424 249.060410,195.717331 
	C254.188904,203.665314 259.489777,211.502106 264.866577,219.687714 
	C263.946838,224.255157 261.305603,227.565262 258.260559,230.977844 
	C240.811630,211.055099 229.668777,188.311432 227.088898,161.368225 
	C228.934647,161.016479 229.721817,162.182205 230.334656,163.631577 
	C233.631104,171.427643 238.463608,178.278458 243.611847,184.915649 
	C244.876862,186.546509 245.148605,188.517929 245.997406,190.649811 
	C246.434525,191.445404 247.013901,191.501907 247.812714,191.773468 
	C248.066498,191.903168 247.985687,191.836960 248.030090,191.809448 
z"/>
<path fill="#989798" opacity="1.000000" stroke="none" 
	d="
M421.790283,573.217407 
	C421.657379,577.980408 418.928772,581.972961 417.384033,586.390808 
	C416.796967,588.069641 416.321564,589.787537 415.908386,591.888062 
	C403.399109,604.924805 395.610596,620.575623 388.386932,638.201965 
	C384.336151,620.547058 384.637787,605.240417 395.862061,591.741089 
	C397.930939,589.252930 400.544220,587.500610 403.451019,586.245056 
	C410.420593,583.234314 416.298981,578.759155 421.790283,573.217407 
z"/>
<path fill="#989798" opacity="1.000000" stroke="none" 
	d="
M326.758484,574.182190 
	C333.094604,579.101135 339.565613,583.624573 346.595856,587.480042 
	C355.660278,592.451233 358.872345,601.379761 361.040955,610.809509 
	C363.022400,619.425476 361.250916,627.810608 359.390717,636.386719 
	C353.874969,619.025146 344.147217,604.431885 331.055328,591.614502 
	C328.261780,586.017334 325.256744,580.808716 326.758484,574.182190 
z"/>
<path fill="#BAB9BA" opacity="1.000000" stroke="none" 
	d="
M475.952148,462.528381 
	C474.642792,464.334717 473.051819,465.576782 472.486389,467.833069 
	C471.638489,471.216187 468.451416,472.287933 465.406006,473.846619 
	C464.628876,470.861023 464.449738,467.523682 460.973572,466.063293 
	C455.535736,463.778717 451.217072,466.911713 450.875702,473.045990 
	C450.734009,475.591248 452.245575,479.372101 449.935242,480.396515 
	C447.459595,481.494141 444.336426,479.206665 441.817200,477.660614 
	C436.299652,474.274567 432.967926,467.400604 434.329041,462.547852 
	C436.022766,456.509155 441.469421,452.872986 448.965149,453.021729 
	C458.876373,453.218353 467.608093,456.997162 475.952148,462.528381 
z"/>
<path fill="#A9A9A9" opacity="1.000000" stroke="none" 
	d="
M591.486450,396.793335 
	C581.442017,393.139496 580.217468,391.023743 581.040283,380.610565 
	C581.218018,378.361298 581.971802,377.710907 584.053162,377.982483 
	C597.127319,379.688354 610.014954,381.572968 619.249023,392.730988 
	C623.479858,397.843353 628.462952,402.333221 633.201294,407.429443 
	C631.197327,409.724609 629.258118,408.126099 627.414978,407.342804 
	C615.964722,402.476624 604.229736,398.603241 591.486450,396.793335 
z"/>
<path fill="#A1A1A1" opacity="1.000000" stroke="none" 
	d="
M115.854950,407.972260 
	C123.096375,399.334595 130.907776,391.367615 139.971344,384.890137 
	C147.014557,379.856537 155.818314,379.757904 163.978363,377.959900 
	C165.796051,377.559357 166.309067,378.592529 166.274582,380.198212 
	C166.196014,383.854828 166.144699,387.512115 166.101196,391.169373 
	C166.074753,393.392700 164.575882,394.304321 162.789352,394.999908 
	C159.258301,396.374817 155.733444,397.765625 151.846863,399.102448 
	C147.427277,398.475037 143.718140,399.705200 140.002106,401.135956 
	C133.980911,403.454163 127.976616,405.831329 121.804672,407.733185 
	C119.939873,408.307770 118.080704,409.268524 115.854950,407.972260 
z"/>
<path fill="#BAB9BA" opacity="1.000000" stroke="none" 
	d="
M326.922180,573.563049 
	C326.922577,579.759766 330.108398,584.853149 330.956177,590.903931 
	C324.047638,586.396301 317.166412,581.476807 310.147644,576.245483 
	C304.648773,566.784180 304.021149,556.749512 304.728790,546.131592 
	C307.951996,543.836487 310.953369,541.916260 314.060760,539.928162 
	C317.324524,551.717773 321.113678,562.841919 326.922180,573.563049 
z"/>
<path fill="#F1F0F1" opacity="1.000000" stroke="none" 
	d="
M292.334808,127.548035 
	C294.083649,130.788620 295.574371,133.743942 297.204590,136.620224 
	C298.436035,138.792801 298.271973,140.557526 296.508789,142.434906 
	C291.414246,147.859451 290.707947,147.850525 287.158997,141.209793 
	C280.674469,129.076141 277.593292,115.944946 276.058167,102.390053 
	C275.891235,100.916428 275.761963,99.319405 276.149139,97.928200 
	C276.846802,95.421288 279.107361,94.039505 281.387299,94.060745 
	C283.774078,94.082993 282.722168,96.610031 282.981995,98.065811 
	C284.787537,108.181664 287.499969,118.005119 292.334808,127.548035 
z"/>
<path fill="#F1F0F1" opacity="1.000000" stroke="none" 
	d="
M471.905334,104.730240 
	C469.827393,115.209267 468.325928,125.387741 464.044922,134.834320 
	C463.157959,136.791550 462.383423,138.805786 461.396667,140.710663 
	C457.627472,147.986816 456.513947,148.028412 451.258514,141.949432 
	C448.853912,139.168030 450.420441,137.025070 451.771362,134.789612 
	C459.396423,122.171913 464.049347,108.496460 466.300476,93.823448 
	C472.726349,95.054962 472.152527,99.770279 471.905334,104.730240 
z"/>
<path fill="#ECEBEB" opacity="1.000000" stroke="none" 
	d="
M135.183868,486.335449 
	C130.741150,496.784454 128.014359,507.265991 127.591537,518.446899 
	C121.466667,514.501038 120.251823,511.412903 121.326126,505.224274 
	C125.160286,483.137177 136.910355,466.047241 154.271698,452.437561 
	C154.454636,452.294189 154.848419,452.419739 156.004929,452.419739 
	C148.221130,463.452209 140.697769,474.078918 135.183868,486.335449 
z"/>
<path fill="#F4F3F4" opacity="1.000000" stroke="none" 
	d="
M358.670288,561.144165 
	C366.725006,562.210083 374.503082,562.327637 382.307739,562.003906 
	C383.942688,561.936096 385.589569,562.051697 387.479126,561.161987 
	C390.149811,564.940979 388.676788,568.567566 387.217377,572.537842 
	C380.943481,575.687927 376.169922,579.701843 374.029236,586.548767 
	C371.371216,579.162964 366.141937,575.014343 359.460205,571.858398 
	C356.687469,568.494995 356.948029,565.039978 358.670288,561.144165 
z"/>
<path fill="#ECEBEB" opacity="1.000000" stroke="none" 
	d="
M606.179688,471.879364 
	C602.745422,466.458679 599.470032,461.367798 596.194641,456.276917 
	C604.558044,460.240143 610.282288,466.868347 615.144714,474.344604 
	C621.546082,484.187164 625.224609,495.118835 627.535461,506.529602 
	C628.634888,511.958740 625.188904,515.387085 621.113403,519.343689 
	C620.828979,501.687378 614.990479,486.487762 606.179688,471.879364 
z"/>
<path fill="#ECEBEB" opacity="1.000000" stroke="none" 
	d="
M480.094421,124.002396 
	C482.312744,117.312569 482.619904,110.645805 483.796021,104.034279 
	C491.113434,107.831924 491.526123,108.430618 489.934509,115.580788 
	C486.390472,131.502411 481.618561,146.941040 471.591095,160.226364 
	C467.542358,157.658585 466.536957,155.010635 469.363190,150.534439 
	C474.423035,142.520676 477.653992,133.603241 480.094421,124.002396 
z"/>
<path fill="#ECEBEB" opacity="1.000000" stroke="none" 
	d="
M260.019714,121.049423 
	C259.369659,118.940781 258.687500,117.253479 258.167419,115.517593 
	C256.348206,109.445717 257.254028,107.641808 263.699341,104.692635 
	C266.871887,117.472649 269.232208,130.457626 274.959900,142.414948 
	C276.385925,145.391968 277.370392,148.625336 279.103790,151.399750 
	C281.681854,155.526077 280.769196,158.379547 276.869293,160.630737 
	C267.787781,149.051407 264.495789,135.006485 260.019714,121.049423 
z"/>
<path fill="#ECEBEB" opacity="1.000000" stroke="none" 
	d="
M115.370895,407.799377 
	C125.835869,405.905243 135.004791,401.168182 144.673813,397.928772 
	C146.889175,397.186584 149.085129,396.028564 151.108521,398.947571 
	C138.701401,405.655273 125.452736,411.373688 113.519127,419.586731 
	C106.573235,424.367035 100.229515,429.904327 92.579109,436.084015 
	C97.134377,423.069153 106.153946,415.555237 115.370895,407.799377 
z"/>
<path fill="#F1F0F1" opacity="1.000000" stroke="none" 
	d="
M440.905823,524.864441 
	C437.577576,518.562500 441.377045,511.386200 448.114410,510.549835 
	C449.353912,510.395996 450.523285,510.775574 451.161469,511.714478 
	C455.789948,518.524048 461.908875,524.485962 463.622894,532.984558 
	C464.646698,538.060852 463.974091,538.640137 459.151855,536.975769 
	C452.153229,534.560242 445.761841,531.188904 440.905823,524.864441 
z"/>
<path fill="#ECEBEB" opacity="1.000000" stroke="none" 
	d="
M591.434814,396.932495 
	C596.868408,394.417358 602.045410,397.557953 607.387573,398.719360 
	C616.157166,400.626007 624.200256,404.668732 632.916687,407.801208 
	C641.143982,414.462219 648.581421,421.515472 653.241455,431.367462 
	C653.320068,431.720306 653.145264,431.828094 653.221375,431.757202 
	C652.457275,432.646423 651.731567,431.838074 650.996948,431.185425 
	C633.604492,415.734436 613.261597,405.402618 591.434814,396.932495 
z"/>
<path fill="#A1A1A1" opacity="1.000000" stroke="none" 
	d="
M505.697052,538.779297 
	C502.192413,538.163574 500.613831,535.053223 498.238525,532.895569 
	C493.108215,528.235229 487.738251,524.027527 480.585571,522.076416 
	C480.152863,518.815063 480.331177,515.490356 479.954285,512.229797 
	C479.420715,507.613617 481.758301,507.330200 485.179749,508.306335 
	C496.247620,511.463898 502.631561,518.952576 504.951660,530.028687 
	C505.522095,532.751831 505.565125,535.585449 505.697052,538.779297 
z"/>
<path fill="#F1F0F1" opacity="1.000000" stroke="none" 
	d="
M307.858154,516.382019 
	C310.139862,520.244568 308.322937,523.090332 306.304840,525.770508 
	C301.504547,532.145630 294.409210,534.988159 287.315674,537.764404 
	C285.433075,538.501160 284.684937,537.794189 284.759308,535.656372 
	C284.901123,531.581970 285.989838,527.833191 288.042969,524.370605 
	C289.474731,521.955994 291.031403,519.608032 292.646973,517.310974 
	C298.682770,508.729034 299.845306,508.645905 307.858154,516.382019 
z"/>
<path fill="#F5F4F5" opacity="1.000000" stroke="none" 
	d="
M304.575623,545.834839 
	C306.091644,555.639832 306.849701,565.588318 309.987000,575.534180 
	C301.795074,570.181458 292.648499,565.592773 287.543732,556.156250 
	C285.907318,553.131104 286.711517,552.327209 289.368530,551.398865 
	C294.344055,549.660522 299.259918,547.751282 304.575623,545.834839 
z"/>
<path fill="#ADADAD" opacity="1.000000" stroke="none" 
	d="
M547.194702,244.780396 
	C539.082214,254.408249 527.707703,257.876801 517.092896,254.248672 
	C515.545837,253.719879 513.809814,253.472656 512.984314,251.392090 
	C520.768738,246.080597 528.536133,241.138474 536.627014,236.083862 
	C539.958618,239.348831 545.043762,240.176529 547.194702,244.780396 
z"/>
<path fill="#989798" opacity="1.000000" stroke="none" 
	d="
M166.543594,481.745972 
	C159.989136,485.218414 155.177048,490.239441 149.888687,494.648651 
	C148.507706,495.800049 147.067535,496.880493 145.306076,497.980255 
	C145.410843,491.351868 148.623093,485.745148 151.585144,480.068726 
	C154.666687,474.163239 158.713287,468.910522 163.024368,463.862488 
	C163.847275,462.898895 164.615814,461.423157 166.182724,461.993469 
	C167.607727,462.512054 166.988815,464.009583 166.992676,465.068878 
	C167.012619,470.544342 166.933609,476.020203 166.543594,481.745972 
z"/>
<path fill="#BAB9BA" opacity="1.000000" stroke="none" 
	d="
M152.312805,294.967438 
	C152.051468,287.427307 152.161682,280.027283 152.263458,272.135162 
	C155.997787,273.350800 159.699463,275.158234 163.500092,276.725708 
	C165.505447,277.552765 166.314819,279.020660 166.380051,280.930939 
	C166.549911,285.905731 166.557770,290.885803 166.673553,295.862793 
	C166.726837,298.153015 165.347305,298.223480 163.714264,297.833679 
	C160.030594,296.954407 156.360168,296.019714 152.312805,294.967438 
z"/>
<path fill="#201E1F" opacity="1.000000" stroke="none" 
	d="
M258.043579,231.445526 
	C259.465668,227.154480 262.088654,223.836929 264.701141,220.169067 
	C270.306183,225.420776 275.616180,230.839661 280.974915,236.592285 
	C278.640259,238.186401 280.116455,240.667938 279.285339,242.407547 
	C278.466675,244.121063 277.984711,246.111053 275.609436,246.988007 
	C272.933014,247.745056 271.733521,245.962738 270.374634,244.688950 
	C268.128723,242.583694 266.019867,240.331299 263.278656,238.238419 
	C261.394470,235.915833 259.771545,233.839066 258.043579,231.445526 
z"/>
<path fill="#A1A1A1" opacity="1.000000" stroke="none" 
	d="
M547.390564,245.057434 
	C546.204956,243.471848 545.062805,242.170319 543.064453,242.002670 
	C539.626831,241.714310 537.970276,239.677002 537.231567,236.201691 
	C543.079102,230.004684 549.207703,224.037994 555.618530,217.875946 
	C556.185913,217.862640 556.585876,218.145584 556.524963,218.379120 
	C555.239258,223.302597 558.530273,225.460724 562.102661,227.841949 
	C558.064087,234.356949 553.945068,240.574158 547.390564,245.057434 
z"/>
<path fill="#F1F0F1" opacity="1.000000" stroke="none" 
	d="
M93.221542,401.426025 
	C88.832611,405.166595 84.792778,408.534149 80.326111,412.257538 
	C78.792686,405.425018 77.501114,399.188354 75.958443,393.014465 
	C75.263130,390.231720 75.928665,389.190826 78.868515,389.001099 
	C83.321098,388.713806 87.746231,388.000885 92.637878,387.401367 
	C95.685722,391.822235 95.226059,396.416840 93.221542,401.426025 
z"/>
<path fill="#A9A9A9" opacity="1.000000" stroke="none" 
	d="
M152.343689,365.890106 
	C152.298462,359.172028 152.680481,352.528351 153.040222,345.426300 
	C166.001678,343.837311 166.001678,343.837311 166.009552,356.585480 
	C166.014221,364.142334 166.013245,364.134857 158.674301,365.096436 
	C156.702454,365.354797 154.738510,365.673492 152.343689,365.890106 
z"/>
<path fill="#F4F3F4" opacity="1.000000" stroke="none" 
	d="
M656.646362,387.748474 
	C661.218262,388.013275 665.473083,388.624329 669.737366,389.161041 
	C672.331360,389.487549 673.520325,390.386169 672.670166,393.370392 
	C671.227478,398.435059 670.010437,403.583771 669.075745,408.765198 
	C668.598694,411.409912 667.786560,411.411102 665.982788,410.032562 
	C662.301147,407.218811 658.597107,404.434265 654.671875,401.364380 
	C655.451477,396.803589 654.849304,392.282043 656.646362,387.748474 
z"/>
<path fill="#F1F0F1" opacity="1.000000" stroke="none" 
	d="
M402.985260,251.924103 
	C402.105347,256.142883 399.996887,259.270691 397.508606,262.186127 
	C394.910065,265.230713 391.932159,266.964355 388.041931,264.495453 
	C384.720215,262.387360 383.794281,257.764801 385.904694,253.919479 
	C388.657196,248.904266 393.500275,246.661743 398.617035,245.230255 
	C400.503693,244.702423 402.570068,243.353989 405.032043,244.495682 
	C404.356171,246.859314 403.688599,249.194031 402.985260,251.924103 
z"/>
<path fill="#A1A1A1" opacity="1.000000" stroke="none" 
	d="
M593.391602,272.779236 
	C594.956665,280.383850 592.888367,287.752441 591.943298,295.636169 
	C591.747192,296.266205 591.519714,296.580078 591.229065,296.657990 
	C581.147156,299.361206 580.938416,299.351562 581.260620,289.045258 
	C581.652466,276.508606 578.531921,278.510040 593.391602,272.779236 
z"/>
<path fill="#BAB9BA" opacity="1.000000" stroke="none" 
	d="
M153.328537,329.803894 
	C152.978912,323.120911 152.964722,316.564240 151.970856,309.626465 
	C154.663086,309.797699 157.385681,310.823608 160.132309,310.892517 
	C165.027313,311.015442 166.788254,312.986420 166.170853,317.904968 
	C165.657928,321.991119 167.477051,327.336792 165.461227,330.017975 
	C163.047058,333.228912 157.816971,329.243378 153.328537,329.803894 
z"/>
<path fill="#989798" opacity="1.000000" stroke="none" 
	d="
M387.299286,572.885742 
	C387.235687,569.245911 387.548828,565.621033 387.879181,561.590332 
	C397.199707,558.426514 406.067047,554.820435 413.639465,548.017090 
	C413.113617,556.799683 407.410065,562.339294 400.656067,567.050171 
	C396.724426,569.792480 392.197998,571.381104 387.299286,572.885742 
z"/>
<path fill="#8D8B8B" opacity="1.000000" stroke="none" 
	d="
M348.756592,260.139893 
	C345.834778,255.058823 344.446289,249.930786 343.955231,244.052155 
	C351.388641,245.913391 358.196014,247.715179 362.027802,254.611481 
	C364.072601,258.291656 362.874481,261.379181 359.889160,263.850616 
	C357.101166,266.158722 354.307495,265.093811 351.763000,263.265320 
	C350.704651,262.504761 349.896332,261.396301 348.756592,260.139893 
z"/>
<path fill="#8D8B8B" opacity="1.000000" stroke="none" 
	d="
M656.617798,387.265991 
	C655.989746,391.917816 658.208496,396.784576 654.884399,401.065308 
	C646.063843,396.897705 637.190552,393.360077 630.892822,383.826813 
	C640.384094,385.050110 648.330200,386.074249 656.617798,387.265991 
z"/>
<path fill="#8D8B8B" opacity="1.000000" stroke="none" 
	d="
M562.494873,227.973663 
	C561.920593,228.011322 561.648132,227.787125 561.341492,227.720886 
	C556.159485,226.601517 553.346252,224.118347 555.928711,218.075012 
	C560.178345,211.070175 564.456055,204.459747 569.034790,197.719666 
	C571.632751,208.628082 568.334595,218.451523 562.494873,227.973663 
z"/>
<path fill="#9D9C9C" opacity="1.000000" stroke="none" 
	d="
M507.087341,503.446899 
	C507.271942,499.404846 505.790985,494.472595 512.860168,494.948395 
	C517.481689,501.197113 521.835876,507.370270 525.350586,514.482910 
	C524.566895,516.633362 524.606018,518.726929 523.743713,520.546753 
	C522.959045,522.202881 522.339050,524.090271 519.499634,523.217041 
	C516.483643,515.767517 512.831970,509.149353 507.087341,503.446899 
z"/>
<path fill="#A1A1A1" opacity="1.000000" stroke="none" 
	d="
M358.770874,560.515869 
	C359.078827,564.143921 359.144989,567.496704 359.170288,571.294067 
	C345.427582,568.340698 335.283752,558.450989 333.982605,546.880615 
	C341.310760,553.256042 349.027496,558.433411 358.770874,560.515869 
z"/>
<path fill="#8D8B8B" opacity="1.000000" stroke="none" 
	d="
M93.226814,401.867401 
	C92.881035,397.310608 92.889626,392.822174 92.995468,387.833862 
	C99.601151,386.273926 106.106934,385.197144 112.620567,384.170135 
	C113.725082,383.995972 115.059769,383.597137 115.718300,384.945221 
	C116.248840,386.031281 116.090607,387.177887 115.376175,388.247833 
	C114.420784,389.678619 113.078117,390.624969 111.636795,391.463043 
	C105.622017,394.960449 99.600327,398.445923 93.226814,401.867401 
z"/>
<path fill="#A9A9A9" opacity="1.000000" stroke="none" 
	d="
M344.538269,471.317505 
	C345.615631,467.523956 346.755585,463.885895 348.496460,460.562653 
	C350.712311,456.332672 356.102753,454.716339 359.448151,456.856201 
	C364.521698,460.101379 364.045013,464.955963 357.918732,469.072968 
	C353.271729,469.555756 349.530792,472.915131 344.538269,471.317505 
z"/>
<path fill="#A1A1A1" opacity="1.000000" stroke="none" 
	d="
M261.397797,172.515198 
	C252.798981,166.612213 248.998840,151.433197 253.755341,140.490280 
	C256.366364,146.978882 258.743530,152.886292 261.080566,159.147583 
	C262.582764,163.643066 263.603516,167.813232 261.397797,172.515198 
z"/>
<path fill="#8D8B8B" opacity="1.000000" stroke="none" 
	d="
M331.212616,265.890198 
	C331.869019,266.889679 332.293762,267.597717 332.792725,268.248840 
	C335.124420,271.291351 333.931458,272.085083 330.614624,272.000671 
	C325.336060,271.866333 320.051575,271.964813 313.816589,271.964813 
	C317.475739,267.061157 320.709656,262.695251 323.981598,258.358032 
	C325.336090,256.562500 325.948883,258.340179 326.503845,259.076630 
	C328.089142,261.180481 329.522217,263.399048 331.212616,265.890198 
z"/>
<path fill="#ECEBEB" opacity="1.000000" stroke="none" 
	d="
M491.074615,167.549957 
	C489.687256,171.456894 487.025604,173.975189 484.920654,176.916565 
	C478.922699,171.402039 478.898773,171.225632 482.613647,164.646759 
	C485.199768,160.066788 487.758636,155.471436 490.622253,150.662201 
	C494.023651,155.956238 492.775787,161.524643 491.074615,167.549957 
z"/>
<path fill="#989798" opacity="1.000000" stroke="none" 
	d="
M519.198853,523.314575 
	C521.649292,523.361450 521.976379,521.450623 522.592285,519.784851 
	C523.183594,518.185730 522.760681,516.105042 525.105957,514.986572 
	C529.050720,521.229309 530.405212,528.334167 531.817078,535.769470 
	C527.114990,534.464172 525.323547,529.668823 521.207397,527.039551 
	C519.504272,526.271240 520.163574,524.572144 519.198853,523.314575 
z"/>
<path fill="#8D8B8B" opacity="1.000000" stroke="none" 
	d="
M491.363342,167.877167 
	C491.039612,162.481293 491.049866,156.960754 490.987457,150.940826 
	C491.128479,147.432602 492.839569,144.995697 493.805481,142.126709 
	C498.495880,147.379883 497.725311,155.860931 491.363342,167.877167 
z"/>
<path fill="#ECEBEB" opacity="1.000000" stroke="none" 
	d="
M261.221802,173.203140 
	C261.033020,168.756378 261.003021,164.624084 261.006775,159.996613 
	C263.006836,162.133865 264.950500,164.783615 266.946838,167.393082 
	C268.483215,169.401276 268.207611,171.304626 266.943756,173.338852 
	C265.121460,176.271866 263.349243,176.962845 261.221802,173.203140 
z"/>
<path fill="#3A393A" opacity="1.000000" stroke="none" 
	d="
M263.000244,238.342438 
	C266.893524,237.630432 268.194946,241.168182 270.583008,243.037674 
	C272.019501,244.162216 273.274384,245.518799 274.943237,246.907745 
	C270.723022,249.583710 268.232330,245.885452 265.126587,243.398834 
	C264.340881,241.612701 263.661987,240.152496 263.000244,238.342438 
z"/>
<path fill="#BAB9BA" opacity="1.000000" stroke="none" 
	d="
M344.075806,471.350464 
	C348.483185,471.133850 352.315186,468.474518 357.123779,469.065552 
	C353.948273,470.921173 350.330719,472.788177 346.657837,474.539185 
	C345.705597,474.993164 344.593414,476.218414 343.592865,475.293549 
	C342.416595,474.206177 343.360321,472.854340 344.075806,471.350464 
z"/>
<path fill="#3A393A" opacity="1.000000" stroke="none" 
	d="
M227.800690,158.631317 
	C226.431381,159.019455 226.548462,158.121902 226.641754,157.187042 
	C227.581985,157.174561 227.967789,157.659409 227.800690,158.631317 
z"/>
<path fill="#8D8B8B" opacity="1.000000" stroke="none" 
	d="
M257.022400,448.531097 
	C257.507660,448.277496 258.077576,448.090027 258.237823,448.269135 
	C258.701508,448.787354 258.091736,448.951813 257.539734,449.125854 
	C257.188507,448.973175 257.054230,448.868927 257.022400,448.531097 
z"/>
<path fill="#F4F3F4" opacity="1.000000" stroke="none" 
	d="
M248.000244,191.575439 
	C247.367798,193.140381 246.841858,192.080978 246.132233,191.392502 
	C246.647751,191.094391 247.290863,191.171051 248.000244,191.575439 
z"/>
<path fill="#989798" opacity="1.000000" stroke="none" 
	d="
M413.999512,548.005615 
	C414.175293,547.835266 414.331726,547.638611 414.488159,547.441895 
	C414.430817,547.663574 414.373474,547.885193 414.128754,548.016724 
	C413.941406,547.926575 413.980194,547.979248 413.999512,548.005615 
z"/>
<path fill="#ECEBEB" opacity="1.000000" stroke="none" 
	d="
M653.461548,431.622101 
	C653.398193,431.772705 653.301453,431.932922 653.204712,432.093140 
	C653.276733,432.047546 653.348755,432.001923 653.446533,431.767395 
	C653.472351,431.578522 653.428223,431.631714 653.461548,431.622101 
z"/>
<path fill="#080607" opacity="1.000000" stroke="none" 
	d="
M318.852966,324.715759 
	C319.696777,319.891571 320.476379,315.493713 321.247253,311.145020 
	C323.427246,311.036835 322.924500,312.605927 323.114410,313.577545 
	C325.598083,326.285980 327.974274,339.015900 330.553192,351.704742 
	C331.051605,354.157013 330.656830,355.011810 328.069336,354.873047 
	C323.443695,354.625000 317.322845,356.314667 314.600006,353.971741 
	C311.983002,351.719818 315.209564,345.686951 315.913696,341.326263 
	C316.787018,335.917786 317.823029,330.535583 318.852966,324.715759 
z"/>
<path fill="#080607" opacity="1.000000" stroke="none" 
	d="
M395.539734,211.426941 
	C384.062866,227.792572 358.252045,226.194641 350.008087,206.978973 
	C345.545349,196.576889 347.596588,185.762299 355.821106,177.735458 
	C363.334198,170.402908 375.958099,168.408875 385.469696,173.052353 
	C400.635834,180.456299 405.115021,197.009888 395.539734,211.426941 
z"/>
</svg>